HIERARCHY
ROOT Hips
{
  OFFSET 91.2244 90.026 26.1335
  CHANNELS 6 Xposition Yposition Zposition Zrotation Xrotation Yrotation
  JOINT RightUpLeg
  {
    OFFSET -9.26543 -1.55198 -0.00276407
    CHANNELS 3 Zrotation Xrotation Yrotation
    JOINT RightLeg
    {
      OFFSET 0.00706465 -41.889 0.0798854
      CHANNELS 3 Zrotation Xrotation Yrotation
      JOINT RightFoot
      {
        OFFSET -1.51766 -41.6901 -0.263239
        CHANNELS 3 Zrotation Xrotation Yrotation
        End Site
        {
          OFFSET 0 -7.69 17.5
        }
      }
    }
  }
  JOINT LeftUpLeg
  {
    OFFSET 9.33035 -1.6331 0.002402
    CHANNELS 3 Zrotation Xrotation Yrotation
    JOINT LeftLeg
    {
      OFFSET 0.0774 -41.8788 0.006528
      CHANNELS 3 Zrotation Xrotation Yrotation
      JOINT LeftFoot
      {
        OFFSET 0.406189 -42.2791 -0.67832
        CHANNELS 3 Zrotation Xrotation Yrotation
        End Site
        {
          OFFSET 0 -7.69 17.5
        }
      }
    }
  }
  JOINT Spine
  {
    OFFSET 0.0210118 14.3125 0.030377
    CHANNELS 3 Zrotation Xrotation Yrotation
    JOINT Spine1
    {
      OFFSET -2.02627e-05 9.71981 0.0121962
      CHANNELS 3 Zrotation Xrotation Yrotation
      JOINT Spine2
      {
        OFFSET 0.023812 10.122 0.0180119
        CHANNELS 3 Zrotation Xrotation Yrotation
        JOINT Spine3
        {
          OFFSET 0.00443321 9.71861 0.0143853
          CHANNELS 3 Zrotation Xrotation Yrotation
          JOINT Neck
          {
            OFFSET -0.025003 10.3767 0.0233355
            CHANNELS 3 Zrotation Xrotation Yrotation
            JOINT Head
            {
              OFFSET -0.00975384 9.4764 0.045578
              CHANNELS 3 Zrotation Xrotation Yrotation
              End Site
              {
                OFFSET 0 15.95 0
              }
            }
          }
          JOINT RightShoulder
          {
            OFFSET -3.18407 6.9358 0.0313291
            CHANNELS 3 Zrotation Xrotation Yrotation
            JOINT RightArm
            {
              OFFSET -12.7601 0.0147069 0.0234973
              CHANNELS 3 Zrotation Xrotation Yrotation
              JOINT RightForeArm
              {
                OFFSET -26.4708 -0.032683 0.042111
                CHANNELS 3 Zrotation Xrotation Yrotation
                JOINT RightHand
                {
                  OFFSET -26.0234 -0.0283521 0.00388791
                  CHANNELS 3 Zrotation Xrotation Yrotation
                  JOINT RightHandThumb1
                  {
                    OFFSET -2.48905 0.190105 3.12053
                    CHANNELS 3 Zrotation Xrotation Yrotation
                    JOINT RightHandThumb2
                    {
                      OFFSET -3.68274 0 0
                      CHANNELS 3 Zrotation Xrotation Yrotation
                      JOINT RightHandThumb3
                      {
                        OFFSET -2.55832 0 0
                        CHANNELS 3 Zrotation Xrotation Yrotation
                        End Site
                        {
                          OFFSET -2.194 0 0
                        }
                      }
                    }
                  }
                  JOINT RightInHandIndex
                  {
                    OFFSET -3.22368 0.508421 1.97842
                    CHANNELS 3 Zrotation Xrotation Yrotation
                    JOINT RightHandIndex1
                    {
                      OFFSET -5.21684 -0.091368 0.999158
                      CHANNELS 3 Zrotation Xrotation Yrotation
                      JOINT RightHandIndex2
                      {
                        OFFSET -3.61937 0 0
                        CHANNELS 3 Zrotation Xrotation Yrotation
                        JOINT RightHandIndex3
                        {
                          OFFSET -2.0521 0 0
                          CHANNELS 3 Zrotation Xrotation Yrotation
                          End Site
                          {
                            OFFSET -1.805 0 0
                          }
                        }
                      }
                    }
                  }
                  JOINT RightInHandMiddle
                  {
                    OFFSET -3.38211 0.517263 0.756737
                    CHANNELS 3 Zrotation Xrotation Yrotation
                    JOINT RightHandMiddle1
                    {
                      OFFSET -5.17411 -0.084 0.313895
                      CHANNELS 3 Zrotation Xrotation Yrotation
                      JOINT RightHandMiddle2
                      {
                        OFFSET -3.94947 0 0
                        CHANNELS 3 Zrotation Xrotation Yrotation
                        JOINT RightHandMiddle3
                        {
                          OFFSET -2.47579 0 0
                          CHANNELS 3 Zrotation Xrotation Yrotation
                          End Site
                          {
                            OFFSET -1.975 0 0
                          }
                        }
                      }
                    }
                  }
                  JOINT RightInHandRing
                  {
                    OFFSET -3.36516 0.537895 -0.128947
                    CHANNELS 3 Zrotation Xrotation Yrotation
                    JOINT RightHandRing1
                    {
                      OFFSET -4.63474 -0.022105 -0.478947
                      CHANNELS 3 Zrotation Xrotation Yrotation
                      JOINT RightHandRing2
                      {
                        OFFSET -3.44238 0 0
                        CHANNELS 3 Zrotation Xrotation Yrotation
                        JOINT RightHandRing3
                        {
                          OFFSET -2.3881 0 0
                          CHANNELS 3 Zrotation Xrotation Yrotation
                          End Site
                          {
                            OFFSET -1.857 0 0
                          }
                        }
                      }
                    }
                  }
                  JOINT RightInHandPinky
                  {
                    OFFSET -3.16105 0.469368 -1.20179
                    CHANNELS 3 Zrotation Xrotation Yrotation
                    JOINT RightHandPinky1
                    {
                      OFFSET -4.14105 -0.022105 -1.09053
                      CHANNELS 3 Zrotation Xrotation Yrotation
                      JOINT RightHandPinky2
                      {
                        OFFSET -2.75653 0 0
                        CHANNELS 3 Zrotation Xrotation Yrotation
                        JOINT RightHandPinky3
                        {
                          OFFSET -1.74189 0 0
                          CHANNELS 3 Zrotation Xrotation Yrotation
                          End Site
                          {
                            OFFSET -1.645 0 0
                          }
                        }
                      }
                    }
                  }
                }
              }
            }
          }
          JOINT LeftShoulder
          {
            OFFSET 3.21192 6.92101 0.01407
            CHANNELS 3 Zrotation Xrotation Yrotation
            JOINT LeftArm
            {
              OFFSET 12.7303 -0.00466279 0.011464
              CHANNELS 3 Zrotation Xrotation Yrotation
              JOINT LeftForeArm
              {
                OFFSET 26.497 -0.127446 0.0273404
                CHANNELS 3 Zrotation Xrotation Yrotation
                JOINT LeftHand
                {
                  OFFSET 26.0093 -0.0453415 -0.0774742
                  CHANNELS 3 Zrotation Xrotation Yrotation
                  JOINT LeftHandThumb1
                  {
                    OFFSET 2.48905 0.190105 3.12053
                    CHANNELS 3 Zrotation Xrotation Yrotation
                    JOINT LeftHandThumb2
                    {
                      OFFSET 3.68274 0 0
                      CHANNELS 3 Zrotation Xrotation Yrotation
                      JOINT LeftHandThumb3
                      {
                        OFFSET 2.55832 0 0
                        CHANNELS 3 Zrotation Xrotation Yrotation
                        End Site
                        {
                          OFFSET 2.194 0 0
                        }
                      }
                    }
                  }
                  JOINT LeftInHandIndex
                  {
                    OFFSET 3.22368 0.508421 1.97842
                    CHANNELS 3 Zrotation Xrotation Yrotation
                    JOINT LeftHandIndex1
                    {
                      OFFSET 5.21684 -0.091368 0.999158
                      CHANNELS 3 Zrotation Xrotation Yrotation
                      JOINT LeftHandIndex2
                      {
                        OFFSET 3.61937 0 0
                        CHANNELS 3 Zrotation Xrotation Yrotation
                        JOINT LeftHandIndex3
                        {
                          OFFSET 2.0521 0 0
                          CHANNELS 3 Zrotation Xrotation Yrotation
                          End Site
                          {
                            OFFSET 1.805 0 0
                          }
                        }
                      }
                    }
                  }
                  JOINT LeftInHandMiddle
                  {
                    OFFSET 3.38211 0.517263 0.756737
                    CHANNELS 3 Zrotation Xrotation Yrotation
                    JOINT LeftHandMiddle1
                    {
                      OFFSET 5.17411 -0.084 0.313895
                      CHANNELS 3 Zrotation Xrotation Yrotation
                      JOINT LeftHandMiddle2
                      {
                        OFFSET 3.94947 0 0
                        CHANNELS 3 Zrotation Xrotation Yrotation
                        JOINT LeftHandMiddle3
                        {
                          OFFSET 2.47579 0 0
                          CHANNELS 3 Zrotation Xrotation Yrotation
                          End Site
                          {
                            OFFSET 1.975 0 0
                          }
                        }
                      }
                    }
                  }
                  JOINT LeftInHandRing
                  {
                    OFFSET 3.36516 0.537895 -0.128947
                    CHANNELS 3 Zrotation Xrotation Yrotation
                    JOINT LeftHandRing1
                    {
                      OFFSET 4.63474 -0.022105 -0.478947
                      CHANNELS 3 Zrotation Xrotation Yrotation
                      JOINT LeftHandRing2
                      {
                        OFFSET 3.44238 0 0
                        CHANNELS 3 Zrotation Xrotation Yrotation
                        JOINT LeftHandRing3
                        {
                          OFFSET 2.3881 0 0
                          CHANNELS 3 Zrotation Xrotation Yrotation
                          End Site
                          {
                            OFFSET 1.857 0 0
                          }
                        }
                      }
                    }
                  }
                  JOINT LeftInHandPinky
                  {
                    OFFSET 3.16105 0.469368 -1.20179
                    CHANNELS 3 Zrotation Xrotation Yrotation
                    JOINT LeftHandPinky1
                    {
                      OFFSET 4.14105 -0.022105 -1.09053
                      CHANNELS 3 Zrotation Xrotation Yrotation
                      JOINT LeftHandPinky2
                      {
                        OFFSET 2.75653 0 0
                        CHANNELS 3 Zrotation Xrotation Yrotation
                        JOINT LeftHandPinky3
                        {
                          OFFSET 1.74189 0 0
                          CHANNELS 3 Zrotation Xrotation Yrotation
                          End Site
                          {
                            OFFSET 1.645 0 0
                          }
                        }
                      }
                    }
                  }
                }
              }
            }
          }
        }
      }
    }
  }
}
MOTION
Frames: 3
Frame Time: 0.00833333
2.999992518422211560e+02 9.354627480260432567e-05 -2.740118394216729727e-03 -5.482600812963406289e-02 -1.755454459283941476e-02 -1.518867428866299829e-01 8.347306444050062169e-02 4.592014433585606126e-02 2.037265280089439190e-01 -4.758775343170498773e-03 8.048104107494114673e-04 -2.126567401678087360e-02 9.993159590751447916e-04 -5.671555117830519863e-04 1.021050085545407039e-03 -1.619707543628613397e-02 9.719672020223449338e-02 7.784496854444036829e-02 -2.470682314386932199e-02 -7.472940098598019470e-03 3.145551406547986845e-02 3.221371191270118017e-03 1.148562781871300884e-03 -2.353001963924942000e-03 -4.096201461784724357e-02 8.038924614246149847e-03 1.986944917797897059e-01 -8.188642294780012348e-03 8.357587393063607359e-04 5.056206260626375931e-02 -1.494823549907545700e-02 -3.075424421417593309e-03 7.832513181878310304e-02 2.103994302280680177e-03 3.035025730605402463e-04 -9.690970229233609665e-03 3.633147385890519825e-03 -5.315479751676796885e-03 -1.373658688441931064e-01 2.776245853211068912e-02 -3.561304764051237588e-03 -5.259376630753587190e-02 -1.991813506433943656e-02 -2.714013806803929757e-02 -2.031304500611019193e-01 -9.320558271223354160e-03 3.632106882314286439e-02 -1.411740634804998541e-02 -3.451390854831010158e-03 -1.515273439778257528e-02 8.960928617858299194e-03 -1.458398478855183270e-02 -1.427315127751425765e-02 3.532251854540126301e-02 0.000000000000000000e+00 0.000000000000000000e+00 0.000000000000000000e+00 -7.947438649281594892e-16 1.199007675774040888e-14 0.000000000000000000e+00 7.255918334797131087e-15 4.881310024068437734e-15 0.000000000000000000e+00 2.195933320157010498e-15 3.035716677084942175e-15 1.200376573464711785e-14 0.000000000000000000e+00 0.000000000000000000e+00 0.000000000000000000e+00 0.000000000000000000e+00 -7.065453773820042931e-15 -4.944727211302406884e-15 0.000000000000000000e+00 -6.767670351019479379e-15 -9.985127496246630047e-15 2.195933320157010498e-15 3.035716677084942175e-15 1.200376573464711785e-14 0.000000000000000000e+00 4.638479669925296893e-15 2.518539292506737886e-15 0.000000000000000000e+00 1.116652050202699325e-15 -8.072633215888314771e-15 0.000000000000000000e+00 -4.610380980637594861e-15 -1.385541583365268690e-14 2.195933320157010498e-15 3.035716677084942175e-15 1.200376573464711785e-14 0.000000000000000000e+00 0.000000000000000000e+00 0.000000000000000000e+00 0.000000000000000000e+00 -2.231704691503175933e-15 -5.378673750051514597e-15 0.000000000000000000e+00 -1.763804242680270505e-15 -2.037454158974133927e-14 2.195933320157010498e-15 3.035716677084942175e-15 1.200376573464711785e-14 0.000000000000000000e+00 0.000000000000000000e+00 0.000000000000000000e+00 0.000000000000000000e+00 6.639030866092059562e-15 -1.257680424958215576e-14 0.000000000000000000e+00 -4.729241937387225583e-15 -1.608104772313064507e-14 -3.947084489237148719e-02 -4.739231924385526457e-02 -2.165901844761489448e-01 -1.214264889202325975e-01 9.570297773089130045e-02 1.800826302171548432e-01 3.283013906457390996e-02 3.185853376217133437e-02 -3.562296142376605163e-02 2.724886427974961833e-01 -2.030236030925668123e-02 1.958222453073123204e-01 0.000000000000000000e+00 0.000000000000000000e+00 0.000000000000000000e+00 1.251186972719282542e-14 -6.789433034126439700e-15 0.000000000000000000e+00 -2.293571006097030729e-16 -2.418146841950624875e-15 0.000000000000000000e+00 1.134788072900298787e-15 -7.173834238088138289e-16 -1.872919820066847683e-16 0.000000000000000000e+00 0.000000000000000000e+00 0.000000000000000000e+00 0.000000000000000000e+00 1.088995393274920339e-15 -6.287753949855235093e-15 0.000000000000000000e+00 -2.194148211216801275e-15 -6.822531781619565087e-15 1.134788072900298787e-15 -7.173834238088138289e-16 -1.872919820066847683e-16 0.000000000000000000e+00 1.238769311873168893e-15 -5.187690123069556065e-15 0.000000000000000000e+00 2.222424404868833264e-15 -4.857040040270537212e-15 0.000000000000000000e+00 -5.498250730989079346e-16 -2.391261448343414349e-16 1.134788072900298787e-15 -7.173834238088138289e-16 -1.872919820066847683e-16 0.000000000000000000e+00 0.000000000000000000e+00 0.000000000000000000e+00 0.000000000000000000e+00 2.438782826161749188e-15 -4.309916422498144484e-15 0.000000000000000000e+00 1.225052441156580934e-16 -3.743174724058782817e-15 1.134788072900298787e-15 -7.173834238088138289e-16 -1.872919820066847683e-16 0.000000000000000000e+00 0.000000000000000000e+00 0.000000000000000000e+00 0.000000000000000000e+00 -2.015205442829163941e-15 -1.718046875063545065e-15 0.000000000000000000e+00 6.870049430536553146e-17 -2.808727212935964271e-15
2.999978269459672333e+02 2.771790947271125034e-04 -2.749417558448109464e-03 -3.905825704411775706e-02 -1.164152410291502057e-02 -9.891371500540070694e-02 4.536330376399941300e-02 2.076498814656049102e-02 1.957318423392049589e-01 1.319145209411559834e-02 6.509295552710016655e-03 -9.553102593822765387e-02 4.805119927541141932e-04 1.108122976756071654e-03 1.510832880157864967e-02 -1.436652435756646633e-02 8.118467236165829992e-02 1.350350034898134544e-02 -5.063020660122261041e-02 -1.904757572850296690e-02 5.946348793348818496e-02 1.033059089935480521e-03 2.987685503539357253e-03 3.874991083884016859e-04 -1.819505416235233861e-02 -1.536617531139062437e-02 -3.179549705633710754e-02 -3.363912299702937099e-03 -6.851391274204961766e-03 -8.499643281509103657e-03 -6.595833488862530049e-03 -1.189732771184960972e-02 -1.343746398263124565e-02 -2.050881600044575175e-04 2.424575382992285558e-04 1.992962349729175339e-03 -1.781643843211778251e-03 -9.741714551192463475e-03 1.155271292475093386e-01 -2.631575349949271878e-02 2.288380797008872022e-02 8.230400054112785996e-03 2.803190041213631575e-03 -2.084016055351236348e-03 1.241095640259677196e-01 -1.789463855790811644e-02 4.390644958688377092e-02 -9.408672098321538280e-03 1.419063700913719417e-01 1.424307863645826455e-01 -3.014009030262440048e-01 -1.782206897385928412e-01 -1.158395745701396549e-02 4.308862643786183222e-01 0.000000000000000000e+00 0.000000000000000000e+00 0.000000000000000000e+00 -6.678259480098426637e-16 9.417799834460879978e-15 0.000000000000000000e+00 4.660884802170681772e-15 2.034760382807850488e-15 0.000000000000000000e+00 1.777022588980830915e-15 2.256939536753191822e-16 1.069876957232549586e-14 0.000000000000000000e+00 0.000000000000000000e+00 0.000000000000000000e+00 0.000000000000000000e+00 -3.945825713638211159e-15 -4.148890362173472908e-15 0.000000000000000000e+00 -9.589118837235428396e-15 -4.472826862389687980e-15 1.777022588980830915e-15 2.256939536753191822e-16 1.069876957232549586e-14 0.000000000000000000e+00 2.535708001482533026e-15 1.987843613012133345e-15 0.000000000000000000e+00 -1.026966466884594640e-16 -4.578359249293648272e-15 0.000000000000000000e+00 -2.215362682042956159e-15 -1.280209235430756403e-14 1.777022588980830915e-15 2.256939536753191822e-16 1.069876957232549586e-14 0.000000000000000000e+00 0.000000000000000000e+00 0.000000000000000000e+00 0.000000000000000000e+00 -1.290288857601865921e-15 -7.191664261489653987e-15 0.000000000000000000e+00 2.239434548792264756e-15 -1.380155043672438163e-14 1.777022588980830915e-15 2.256939536753191822e-16 1.069876957232549586e-14 0.000000000000000000e+00 0.000000000000000000e+00 0.000000000000000000e+00 0.000000000000000000e+00 7.620784984567657329e-16 -1.171573486786758973e-14 0.000000000000000000e+00 4.519503011962468430e-16 -1.101508041872182192e-14 1.990083969462938876e-02 5.405317024493950032e-04 1.121334987313974685e-01 -1.189378106651740180e-01 1.020141720487256071e-01 2.035978784386457408e-01 9.336382095861392449e-02 1.530483438259614901e-02 -3.278207809422634122e-02 4.383169575220222658e-01 -1.101485596070546358e-03 3.979364943839281410e-01 0.000000000000000000e+00 0.000000000000000000e+00 0.000000000000000000e+00 1.070960974537824080e-14 -2.747936663351741450e-15 0.000000000000000000e+00 -1.440656962539879462e-15 -9.250647736507484952e-16 0.000000000000000000e+00 6.705196163212315438e-16 -1.097899746754242256e-15 -1.255537552898493020e-15 0.000000000000000000e+00 0.000000000000000000e+00 0.000000000000000000e+00 0.000000000000000000e+00 -4.080448775595265485e-17 -2.851050384377519111e-16 0.000000000000000000e+00 -4.510826162597062901e-16 -3.750777196475327165e-15 6.705196163212315438e-16 -1.097899746754242256e-15 -1.255537552898493020e-15 0.000000000000000000e+00 -1.362905579819352529e-15 7.513785163503332313e-15 0.000000000000000000e+00 -9.039850481178035442e-16 3.875988476113430207e-15 0.000000000000000000e+00 -9.050089598317384118e-16 1.065552059738628445e-15 6.705196163212315438e-16 -1.097899746754242256e-15 -1.255537552898493020e-15 0.000000000000000000e+00 0.000000000000000000e+00 0.000000000000000000e+00 0.000000000000000000e+00 6.186314119351535022e-16 1.005845279259089637e-15 0.000000000000000000e+00 -2.796000322443143458e-16 -2.562059651190584897e-15 6.705196163212315438e-16 -1.097899746754242256e-15 -1.255537552898493020e-15 0.000000000000000000e+00 0.000000000000000000e+00 0.000000000000000000e+00 0.000000000000000000e+00 -3.174965147425950893e-15 2.048527028934193619e-15 0.000000000000000000e+00 -6.010844309600754617e-16 -5.369842299837951487e-16
2.999969501376687617e+02 5.129525092684099992e-04 -1.742644947496648639e-03 2.466485121715330121e-03 -5.765192113910445892e-04 2.994908006493331165e-02 -3.174149861619282587e-02 -2.017875571646999058e-02 3.185622389651446978e-02 1.491460371316206610e-02 5.737357693200814679e-03 -9.450514650318438126e-02 3.874045561535936029e-04 1.325365700866344351e-03 2.221662394336633428e-02 -6.796546091870724234e-03 6.993278320726401508e-03 -7.612104015905145349e-02 -5.289661502635680662e-02 -2.026174066461191442e-02 5.845956413565457643e-02 -1.081854451085654655e-03 2.162624656271874661e-03 3.580391016467013993e-03 1.546775494040029432e-02 -2.805435630642716047e-02 -2.351518196373812430e-01 3.659701899924895901e-03 -1.040012846280860721e-02 -6.049779510881327788e-02 5.763589938739562164e-03 -1.392298619369778875e-02 -9.411319074261925710e-02 -2.207757494097205286e-03 1.684596757750155981e-04 1.188808449521987394e-02 -5.980664921093661532e-03 -1.139034006883528870e-02 2.771382010859458345e-01 -5.842493134906199398e-02 4.169766328985167331e-02 5.731033906122763588e-02 2.429456688214961732e-02 1.969980149692075397e-02 3.473308575925351249e-01 -1.832176420474854184e-02 3.363953896865022608e-02 2.466113745030145028e-03 2.162027551153404004e-01 2.205462143540518616e-01 -5.002869411182013781e-01 -2.552221693310895989e-01 -1.878163737438713968e-02 6.541174021542039974e-01 0.000000000000000000e+00 0.000000000000000000e+00 0.000000000000000000e+00 -5.983997550403565123e-16 4.983516034584121696e-16 0.000000000000000000e+00 7.511217745411493579e-17 -1.674528488746689636e-15 0.000000000000000000e+00 -6.772875476614886573e-16 -1.145383344880638123e-15 1.976633065726508328e-15 0.000000000000000000e+00 0.000000000000000000e+00 0.000000000000000000e+00 0.000000000000000000e+00 1.127745103630717455e-15 -1.152343255047174189e-15 0.000000000000000000e+00 -3.781316363993551085e-15 4.021291950376677883e-15 -6.772875476614886573e-16 -1.145383344880638123e-15 1.976633065726508328e-15 0.000000000000000000e+00 -3.192250750367129966e-15 3.121898816280564930e-15 0.000000000000000000e+00 1.785419838014907025e-15 1.815510138661821538e-16 0.000000000000000000e+00 9.654099556200965894e-16 -1.757894627339369193e-15 -6.772875476614886573e-16 -1.145383344880638123e-15 1.976633065726508328e-15 0.000000000000000000e+00 0.000000000000000000e+00 0.000000000000000000e+00 0.000000000000000000e+00 8.294204110297883944e-16 -1.803399424600757676e-15 0.000000000000000000e+00 1.018722970290550461e-15 5.751289999857488748e-15 -6.772875476614886573e-16 -1.145383344880638123e-15 1.976633065726508328e-15 0.000000000000000000e+00 0.000000000000000000e+00 0.000000000000000000e+00 0.000000000000000000e+00 -4.322996014657604554e-15 1.843089724080004960e-15 0.000000000000000000e+00 3.124577524430908676e-15 1.346392149139356086e-15 6.589477712894191430e-02 4.475504808018176961e-02 3.391644582142661069e-01 -9.049716453111510128e-02 7.640528797925477678e-02 1.770019667073580161e-01 1.249511706060576766e-01 -1.016346970604325647e-05 -1.849451303084320708e-02 2.772779192913781277e-01 1.589828425363177741e-02 2.990312077338405095e-01 0.000000000000000000e+00 0.000000000000000000e+00 0.000000000000000000e+00 7.489338219592067361e-17 -3.775346681549045740e-16 0.000000000000000000e+00 -2.097838493501238098e-15 -7.507135908656456373e-16 0.000000000000000000e+00 -1.982083391697219481e-15 -3.786406319055871548e-16 -1.172643154671632786e-15 0.000000000000000000e+00 0.000000000000000000e+00 0.000000000000000000e+00 0.000000000000000000e+00 -9.691270544793766219e-16 3.486352298742857773e-15 0.000000000000000000e+00 9.528303167486546428e-16 -3.209604814823898489e-16 -1.982083391697219481e-15 -3.786406319055871548e-16 -1.172643154671632786e-15 0.000000000000000000e+00 -1.108702993837184615e-15 9.301596494025486360e-15 0.000000000000000000e+00 -1.319009095392517736e-15 6.634854102766481725e-15 0.000000000000000000e+00 5.115768185824224781e-16 1.424464182302396964e-16 -1.982083391697219481e-15 -3.786406319055871548e-16 -1.172643154671632786e-15 0.000000000000000000e+00 0.000000000000000000e+00 0.000000000000000000e+00 0.000000000000000000e+00 -1.132997764000769296e-15 4.833163210552791166e-15 0.000000000000000000e+00 4.501776497074734942e-16 -8.934752852210801781e-16 -1.982083391697219481e-15 -3.786406319055871548e-16 -1.172643154671632786e-15 0.000000000000000000e+00 0.000000000000000000e+00 0.000000000000000000e+00 0.000000000000000000e+00 -1.271554020161379435e-15 3.546410692625087946e-15 0.000000000000000000e+00 -4.378542669145917714e-16 -2.589730152718179944e-16
